<?xml version="1.0" encoding="iso-8859-1"?>
<!-- Generator: Adobe Illustrator 19.0.0, SVG Export Plug-In . SVG Version: 6.00 Build 0)  -->
<svg version="1.1" id="Layer_1" xmlns="http://www.w3.org/2000/svg" xmlns:xlink="http://www.w3.org/1999/xlink" x="0px" y="0px"
	 viewBox="0 0 359.761 359.761" style="enable-background:new 0 0 359.761 359.761;" xml:space="preserve">
<g>
	<g>
		<rect x="219.085" y="194.559" style="fill:#EED898;" width="7.049" height="122.832"/>
		<path style="fill:#B04C5C;" d="M227.826,188.819c-2.868-3.373-7.564-3.373-10.432,0l-8.814,10.361
			c-2.868,3.373-1.593,6.132,2.835,6.132h22.389c4.428,0,5.704-2.76,2.835-6.132L227.826,188.819z"/>
		<path style="fill:#D85C72;" d="M308.068,85.46c0-47.199-38.26-85.46-85.459-85.46c-47.197,0-85.459,38.261-85.459,85.46
			c0,47.198,38.262,109.099,85.459,109.099C269.808,194.559,308.068,132.658,308.068,85.46z"/>
		<circle style="fill:#DE6E7F;" cx="263.31" cy="54.231" r="24.216"/>
	</g>
	<g>
		<rect x="117.142" y="218.45" style="fill:#EED898;" width="7.049" height="122.832"/>
		<path style="fill:#00948D;" d="M125.883,212.71c-2.869-3.373-7.563-3.373-10.433,0l-8.813,10.36
			c-2.868,3.372-1.593,6.132,2.835,6.132h22.39c4.427,0,5.703-2.76,2.834-6.132L125.883,212.71z"/>
		<path style="fill:#00BCB4;" d="M206.126,109.35c0-47.198-38.261-85.46-85.459-85.46c-47.197,0-85.459,38.262-85.459,85.46
			s38.262,109.1,85.459,109.1C167.865,218.45,206.126,156.548,206.126,109.35z"/>
		<circle style="fill:#1ACEC6;" cx="161.367" cy="78.122" r="24.216"/>
	</g>
	<g>
		<rect x="235.57" y="254.313" style="fill:#EED898;" width="7.049" height="105.448"/>
		<path style="fill:#FFB819;" d="M244.311,248.573c-2.869-3.373-7.563-3.373-10.432,0l-8.813,10.36
			c-2.869,3.373-1.593,6.133,2.835,6.133h22.389c4.428,0,5.703-2.76,2.835-6.133L244.311,248.573z"/>
		<path style="fill:#FFD26C;" d="M324.553,145.214c0-47.198-38.261-85.46-85.459-85.46c-47.197,0-85.459,38.262-85.459,85.46
			s38.262,109.1,85.459,109.1C286.292,254.314,324.553,192.412,324.553,145.214z"/>
		<circle style="fill:#FFDA8A;" cx="279.794" cy="113.985" r="24.217"/>
	</g>
</g>
<g>
</g>
<g>
</g>
<g>
</g>
<g>
</g>
<g>
</g>
<g>
</g>
<g>
</g>
<g>
</g>
<g>
</g>
<g>
</g>
<g>
</g>
<g>
</g>
<g>
</g>
<g>
</g>
<g>
</g>
</svg>
