<?xml version="1.0" encoding="utf-8"?>
<!-- Generator: Adobe Illustrator 18.1.1, SVG Export Plug-In . SVG Version: 6.00 Build 0)  -->
<svg version="1.1" id="Ebene_1" xmlns="http://www.w3.org/2000/svg" xmlns:xlink="http://www.w3.org/1999/xlink" x="0px" y="0px"
	 viewBox="0 0 612 612" enable-background="new 0 0 612 612" xml:space="preserve">
<g>
	<polygon fill="#758687" stroke="#758687" stroke-miterlimit="10" points="118.8,71.5 222.4,71.5 170.5,161.2 	"/>
	<polygon fill="#758687" stroke="#758687" stroke-miterlimit="10" points="274,160.9 170.4,160.9 222.3,71.1 	"/>
	<polygon fill="#758687" stroke="#758687" stroke-miterlimit="10" points="172.6,166 276.2,166 224.4,255.7 	"/>
	<polygon fill="#758687" stroke="#758687" stroke-miterlimit="10" points="327.8,255.4 224.2,255.4 276,165.7 	"/>
	<polygon fill="#758687" stroke="#758687" stroke-miterlimit="10" points="226.4,260.5 330.1,260.5 278.3,350.2 	"/>
	<polygon fill="#758687" stroke="#758687" stroke-miterlimit="10" points="381.7,349.9 278.1,349.9 329.9,260.2 	"/>
</g>
<g>
	<polygon fill="#D5DFE3" stroke="#D5DFE3" stroke-miterlimit="10" points="493.1,356.3 441.1,445.9 389.5,356.1 	"/>
	<polygon fill="#D5DFE3" stroke="#D5DFE3" stroke-miterlimit="10" points="337.9,445.7 389.8,356.1 441.5,445.9 	"/>
	<polygon fill="#D5DFE3" stroke="#D5DFE3" stroke-miterlimit="10" points="436.9,452 384.9,541.6 333.3,451.8 	"/>
	<polygon fill="#D5DFE3" stroke="#D5DFE3" stroke-miterlimit="10" points="281.7,541.4 333.6,451.8 385.3,541.6 	"/>
	<polygon fill="#D5DFE3" stroke="#D5DFE3" stroke-miterlimit="10" points="605.6,166.1 553.6,255.8 501.9,165.9 	"/>
	<polygon fill="#D5DFE3" stroke="#D5DFE3" stroke-miterlimit="10" points="450.3,255.6 502.3,165.9 554,255.8 	"/>
</g>
<g>
	<polygon fill="#B1BABF" stroke="#B1BABF" stroke-miterlimit="10" points="229,70.7 332.5,70.7 280.7,160.4 	"/>
	<polygon fill="#B1BABF" stroke="#B1BABF" stroke-miterlimit="10" points="384.1,160.1 280.5,160.1 332.3,70.4 	"/>
	<polygon fill="#B1BABF" stroke="#B1BABF" stroke-miterlimit="10" points="339,70.7 442.7,70.8 390.9,160.5 	"/>
	<polygon fill="#B1BABF" stroke="#B1BABF" stroke-miterlimit="10" points="494.2,160.2 390.7,160.2 442.5,70.5 	"/>
	<polygon fill="#B1BABF" stroke="#B1BABF" stroke-miterlimit="10" points="449.3,71.5 552.9,71.5 501.1,161.2 	"/>
	<polygon fill="#B1BABF" stroke="#B1BABF" stroke-miterlimit="10" points="604.6,160.9 500.9,160.9 552.7,71.1 	"/>
	<polygon fill="#B1BABF" stroke="#B1BABF" stroke-miterlimit="10" points="282.6,166 386.3,166 334.5,255.7 	"/>
	<polygon fill="#B1BABF" stroke="#B1BABF" stroke-miterlimit="10" points="437.9,255.4 334.3,255.4 386.1,165.7 	"/>
	<polygon fill="#B1BABF" stroke="#B1BABF" stroke-miterlimit="10" points="337.7,260.5 441.3,260.5 389.4,350.2 	"/>
	<polygon fill="#B1BABF" stroke="#B1BABF" stroke-miterlimit="10" points="492.9,349.9 389.3,349.9 441,260.2 	"/>
</g>
<g>
	<polygon fill="#90A4A6" stroke="#90A4A6" stroke-miterlimit="10" points="57.6,348 6.6,257.8 110.2,258.7 	"/>
	<polygon fill="#90A4A6" stroke="#90A4A6" stroke-miterlimit="10" points="59,168.9 110,259 6.4,258.1 	"/>
	<polygon fill="#90A4A6" stroke="#90A4A6" stroke-miterlimit="10" points="113.5,254.6 62.4,164.5 166.1,165.4 	"/>
	<polygon fill="#90A4A6" stroke="#90A4A6" stroke-miterlimit="10" points="114.9,75.5 165.9,165.7 62.2,164.8 	"/>
	<polygon fill="#90A4A6" stroke="#90A4A6" stroke-miterlimit="10" points="381.9,356.3 329.9,445.9 278.3,356.1 	"/>
	<polygon fill="#90A4A6" stroke="#90A4A6" stroke-miterlimit="10" points="226.6,445.7 278.7,356.1 330.3,445.9 	"/>
	<polygon fill="#90A4A6" stroke="#90A4A6" stroke-miterlimit="10" points="325.7,452 273.7,541.6 222.1,451.8 	"/>
	<polygon fill="#90A4A6" stroke="#90A4A6" stroke-miterlimit="10" points="170.4,541.4 222.5,451.8 274.1,541.6 	"/>
</g>
</svg>
