<svg version="1.1" id="Ebene_1" xmlns="http://www.w3.org/2000/svg" x="0" y="0" viewBox="0 0 612 612" xml:space="preserve"><g fill="#758687" stroke="#758687" stroke-miterlimit="10"><path d="M118.8 71.5h103.6l-51.9 89.7z"/><path d="M274 160.9H170.4l51.9-89.8zM172.6 166h103.6l-51.8 89.7z"/><path d="M327.8 255.4H224.2l51.8-89.7zM226.4 260.5h103.7l-51.8 89.7z"/><path d="M381.7 349.9H278.1l51.8-89.7z"/></g><g fill="#D5DFE3" stroke="#D5DFE3" stroke-miterlimit="10"><path d="m493.1 356.3-52 89.6-51.6-89.8z"/><path d="m337.9 445.7 51.9-89.6 51.7 89.8zM436.9 452l-52 89.6-51.6-89.8z"/><path d="m281.7 541.4 51.9-89.6 51.7 89.8zM605.6 166.1l-52 89.7-51.7-89.9z"/><path d="m450.3 255.6 52-89.7 51.7 89.9z"/></g><g fill="#B1BABF" stroke="#B1BABF" stroke-miterlimit="10"><path d="M229 70.7h103.5l-51.8 89.7z"/><path d="M384.1 160.1H280.5l51.8-89.7zM339 70.7l103.7.1-51.8 89.7z"/><path d="M494.2 160.2H390.7l51.8-89.7zM449.3 71.5h103.6l-51.8 89.7z"/><path d="M604.6 160.9H500.9l51.8-89.8zM282.6 166h103.7l-51.8 89.7z"/><path d="M437.9 255.4H334.3l51.8-89.7zM337.7 260.5h103.6l-51.9 89.7z"/><path d="M492.9 349.9H389.3l51.7-89.7z"/></g><g fill="#90A4A6" stroke="#90A4A6" stroke-miterlimit="10"><path d="m57.6 348-51-90.2 103.6.9z"/><path d="m59 168.9 51 90.1-103.6-.9zM113.5 254.6l-51.1-90.1 103.7.9z"/><path d="m114.9 75.5 51 90.2-103.7-.9zM381.9 356.3l-52 89.6-51.6-89.8z"/><path d="m226.6 445.7 52.1-89.6 51.6 89.8zM325.7 452l-52 89.6-51.6-89.8z"/><path d="m170.4 541.4 52.1-89.6 51.6 89.8z"/></g></svg>